<svg width="260" height="66" viewBox="0 0 260 66" fill="none" xmlns="http://www.w3.org/2000/svg">
<path fill-rule="evenodd" clip-rule="evenodd" d="M123.046 0.956556C124.635 0.34999 126.4 0.397985 127.953 1.08998C131.17 2.54094 132.606 6.31275 131.168 9.52923L123.953 25.6451L108.756 60.5114C107.745 62.8291 105.462 64.3358 102.928 64.3564H102.683H102.437C99.8997 64.34 97.6108 62.8326 96.5982 60.5114L81.399 25.6558L74.1842 9.5399C73.1247 7.43502 73.3097 4.91957 74.6657 2.99156C76.0217 1.06355 78.3295 0.0346883 80.6734 0.313191C83.0173 0.591693 85.0185 2.13253 85.8828 4.32436L102.683 41.8464L119.482 4.32436C120.176 2.77456 121.458 1.56312 123.046 0.956556ZM63.5971 0.516705C60.0605 0.524057 57.1973 3.38703 57.1973 6.91613V51.3575C41.6107 50.1416 33.8347 43.9582 21.5001 29.6208L40.2452 11.5131C42.5673 9.0198 42.5272 5.14901 40.154 2.70418C37.7808 0.259345 33.9049 0.0960406 31.3336 2.33254L12.8263 20.1976V6.9028C12.8263 3.36849 9.95504 0.503372 6.41316 0.503372C2.87127 0.503372 0 3.36849 0 6.9028V58.1276C0 61.6619 2.87127 64.527 6.41316 64.527C9.95504 64.527 12.8263 61.6619 12.8263 58.1276V39.1613C18.844 46.094 24.72 52.0668 31.4432 56.3117C40.2613 61.8979 50.1883 64.3803 63.5998 64.3803C67.1417 64.3803 70.0129 61.5152 70.0129 57.9809V6.91613C70.0129 5.21844 69.3369 3.59031 68.1336 2.39011C66.9304 1.18991 65.2985 0.515997 63.5971 0.516705ZM229.04 0.522965C231.519 0.522965 233.775 1.94798 234.836 4.18305L259.062 55.3785L259.065 55.3812C260.123 57.4585 259.966 59.9458 258.655 61.8743C257.344 63.8028 255.086 64.8676 252.76 64.654C250.435 64.4404 248.409 62.9822 247.473 60.8473L229.035 21.8961L210.613 60.8473C209.553 63.0856 207.293 64.5124 204.812 64.511C180.383 64.511 168.685 56.2451 154.413 39.9799C152.98 38.3361 152.484 36.0778 153.096 33.9866C153.707 31.8953 155.344 30.2584 157.438 29.6421C161.141 28.5512 163.612 25.0707 163.417 21.2229C163.221 17.3751 160.409 14.1621 156.614 13.4508C152.82 12.7395 149.031 14.7152 147.449 18.2298L142.559 29.4501L129.142 61.6686C128.267 63.7568 126.341 65.2202 124.091 65.5078C121.841 65.7954 119.609 64.8633 118.234 63.0627C116.86 61.2621 116.552 58.8665 117.428 56.7784L135.721 13.0969C135.724 13.0789 135.732 13.0621 135.745 13.0489C139.257 5.20203 147.184 0.260975 155.791 0.553198C164.398 0.84542 171.97 6.31264 174.94 14.3796C177.909 22.4465 175.684 31.5045 169.313 37.2868C178.417 46.5793 186.42 50.9896 200.799 51.6455L223.245 4.18305C224.305 1.94798 226.562 0.522965 229.04 0.522965Z" fill="#8CC646"/>
</svg>
