<svg xmlns="http://www.w3.org/2000/svg" viewBox="0 0 971.78 244.03"><defs><style>.cls-1{fill:#8cc646;}</style></defs><title>Resurs 1</title><g id="Lager_2" data-name="Lager 2"><g id="LOGO_GREEN" data-name="LOGO GREEN"><path class="cls-1" d="M238,0a24,24,0,0,0-23.95,24V190.67c-58.33-4.56-87.43-27.75-133.59-81.52l70.15-67.91A24,24,0,0,0,117.26,6.8L48,73.84V23.95a24,24,0,0,0-48,0V216.06a24,24,0,0,0,48,0V144.93c22.52,26,44.51,48.4,69.67,64.32,33,20.95,70.15,30.26,120.34,30.26a24,24,0,0,0,24-24V24A24,24,0,0,0,238,0Z"/></g><g id="Lager_6" data-name="Lager 6"><path class="cls-1" d="M434.16,217.59"/><path class="cls-1" d="M432.2,47"/><path class="cls-1" d="M969.49,205.75l-90.66-192a24,24,0,0,0-43.38,0l-84,178c-53.81-2.46-83.76-19-117.83-53.85A79.21,79.21,0,1,0,508,47a.34.34,0,0,0-.09.18L460.52,161l0,.07L439.45,211a23.76,23.76,0,1,0,43.84,18.34L533.5,108.51l18.3-42.08a31.27,31.27,0,1,1,37.38,42.8A24,24,0,0,0,577.86,148c53.41,61,97.19,92,188.61,92a24,24,0,0,0,21.71-13.74L857.12,80.18l69,146.08a24,24,0,1,0,43.38-20.5Z"/></g><g id="Lager_7" data-name="Lager 7"><path class="cls-1" d="M478.84,2.15a24,24,0,0,0-31.7,12.13L432.49,47.07l-.23,0,.21.09L384.27,155,321.4,14.28a24,24,0,1,0-43.78,19.56l27,60.44L361.5,225a24,24,0,0,0,21.85,14.42c.31,0,.62,0,.92,0s.61,0,.92,0A24,24,0,0,0,407,225L463.91,94.29l27-60.44A24,24,0,0,0,478.84,2.15Z"/><path class="cls-1" d="M432.26,47l-.06,0S432.22,47,432.26,47Z"/></g></g></svg>